<mxfile host="app.diagrams.net" modified="2022-01-21T10:01:27.395Z" agent="5.0 (Windows NT 10.0; Win64; x64) AppleWebKit/537.36 (KHTML, like Gecko) Chrome/97.0.4692.71 Safari/537.36" etag="hRpBWumgzTUR4mzwil24" version="16.2.7" type="github">
  <diagram id="C5RBs43oDa-KdzZeNtuy" name="Page-1">
    <mxGraphModel dx="1422" dy="864" grid="1" gridSize="10" guides="1" tooltips="1" connect="1" arrows="1" fold="1" page="1" pageScale="1" pageWidth="12000" pageHeight="12000" background="none" math="0" shadow="0">
      <root>
        <mxCell id="WIyWlLk6GJQsqaUBKTNV-0" />
        <mxCell id="WIyWlLk6GJQsqaUBKTNV-1" parent="WIyWlLk6GJQsqaUBKTNV-0" />
        <mxCell id="0z6L-YeTGv1VFIF59bVe-4" style="edgeStyle=orthogonalEdgeStyle;rounded=0;orthogonalLoop=1;jettySize=auto;html=1;exitX=0.5;exitY=1;exitDx=0;exitDy=0;" parent="WIyWlLk6GJQsqaUBKTNV-1" source="0z6L-YeTGv1VFIF59bVe-0" target="0z6L-YeTGv1VFIF59bVe-3" edge="1">
          <mxGeometry relative="1" as="geometry" />
        </mxCell>
        <mxCell id="0z6L-YeTGv1VFIF59bVe-170" style="edgeStyle=orthogonalEdgeStyle;rounded=0;orthogonalLoop=1;jettySize=auto;html=1;exitX=0.5;exitY=1;exitDx=0;exitDy=0;" parent="WIyWlLk6GJQsqaUBKTNV-1" source="0z6L-YeTGv1VFIF59bVe-0" target="0z6L-YeTGv1VFIF59bVe-2" edge="1">
          <mxGeometry relative="1" as="geometry" />
        </mxCell>
        <mxCell id="bKSyxjsHjiWKcgMObePK-18" style="edgeStyle=orthogonalEdgeStyle;rounded=0;orthogonalLoop=1;jettySize=auto;html=1;exitX=0;exitY=0.5;exitDx=0;exitDy=0;" edge="1" parent="WIyWlLk6GJQsqaUBKTNV-1" source="0z6L-YeTGv1VFIF59bVe-0" target="0z6L-YeTGv1VFIF59bVe-1">
          <mxGeometry relative="1" as="geometry" />
        </mxCell>
        <mxCell id="0z6L-YeTGv1VFIF59bVe-0" value="Login" style="rounded=1;whiteSpace=wrap;html=1;" parent="WIyWlLk6GJQsqaUBKTNV-1" vertex="1">
          <mxGeometry x="2910" y="1130" width="120" height="60" as="geometry" />
        </mxCell>
        <mxCell id="bKSyxjsHjiWKcgMObePK-9" style="edgeStyle=orthogonalEdgeStyle;rounded=0;orthogonalLoop=1;jettySize=auto;html=1;exitX=0.5;exitY=1;exitDx=0;exitDy=0;entryX=0.5;entryY=0;entryDx=0;entryDy=0;" edge="1" parent="WIyWlLk6GJQsqaUBKTNV-1" source="0z6L-YeTGv1VFIF59bVe-1" target="bKSyxjsHjiWKcgMObePK-6">
          <mxGeometry relative="1" as="geometry" />
        </mxCell>
        <mxCell id="0z6L-YeTGv1VFIF59bVe-1" value="norm user&amp;nbsp;&lt;br&gt;" style="ellipse;whiteSpace=wrap;html=1;aspect=fixed;fontFamily=Helvetica;fontSize=12;fontColor=#000000;align=center;strokeColor=#000000;fillColor=#ffffff;" parent="WIyWlLk6GJQsqaUBKTNV-1" vertex="1">
          <mxGeometry x="2620" y="1280" width="120" height="60" as="geometry" />
        </mxCell>
        <mxCell id="rKLbovxo4yAuVbZpLVQN-10" style="edgeStyle=orthogonalEdgeStyle;rounded=0;orthogonalLoop=1;jettySize=auto;html=1;exitX=0.5;exitY=1;exitDx=0;exitDy=0;entryX=0.5;entryY=0;entryDx=0;entryDy=0;" parent="WIyWlLk6GJQsqaUBKTNV-1" source="0z6L-YeTGv1VFIF59bVe-2" target="rKLbovxo4yAuVbZpLVQN-7" edge="1">
          <mxGeometry relative="1" as="geometry" />
        </mxCell>
        <mxCell id="0z6L-YeTGv1VFIF59bVe-2" value="admin user" style="ellipse;whiteSpace=wrap;html=1;aspect=fixed;fontFamily=Helvetica;fontSize=12;fontColor=#000000;align=center;strokeColor=#000000;fillColor=#ffffff;" parent="WIyWlLk6GJQsqaUBKTNV-1" vertex="1">
          <mxGeometry x="3040" y="1280" width="120" height="60" as="geometry" />
        </mxCell>
        <mxCell id="rKLbovxo4yAuVbZpLVQN-8" style="edgeStyle=orthogonalEdgeStyle;rounded=0;orthogonalLoop=1;jettySize=auto;html=1;exitX=0.5;exitY=1;exitDx=0;exitDy=0;entryX=0.5;entryY=0;entryDx=0;entryDy=0;" parent="WIyWlLk6GJQsqaUBKTNV-1" source="0z6L-YeTGv1VFIF59bVe-3" target="rKLbovxo4yAuVbZpLVQN-7" edge="1">
          <mxGeometry relative="1" as="geometry" />
        </mxCell>
        <mxCell id="0z6L-YeTGv1VFIF59bVe-3" value="mod user" style="ellipse;whiteSpace=wrap;html=1;aspect=fixed;fontFamily=Helvetica;fontSize=12;fontColor=#000000;align=center;strokeColor=#000000;fillColor=#ffffff;" parent="WIyWlLk6GJQsqaUBKTNV-1" vertex="1">
          <mxGeometry x="2910" y="1280" width="120" height="60" as="geometry" />
        </mxCell>
        <mxCell id="bKSyxjsHjiWKcgMObePK-17" style="edgeStyle=orthogonalEdgeStyle;rounded=0;orthogonalLoop=1;jettySize=auto;html=1;exitX=0.5;exitY=1;exitDx=0;exitDy=0;entryX=1;entryY=0.5;entryDx=0;entryDy=0;" edge="1" parent="WIyWlLk6GJQsqaUBKTNV-1" source="0z6L-YeTGv1VFIF59bVe-8" target="0z6L-YeTGv1VFIF59bVe-0">
          <mxGeometry relative="1" as="geometry" />
        </mxCell>
        <mxCell id="0z6L-YeTGv1VFIF59bVe-8" value="Create User" style="rounded=1;whiteSpace=wrap;html=1;" parent="WIyWlLk6GJQsqaUBKTNV-1" vertex="1">
          <mxGeometry x="3180" y="1000" width="120" height="60" as="geometry" />
        </mxCell>
        <mxCell id="0z6L-YeTGv1VFIF59bVe-15" style="edgeStyle=orthogonalEdgeStyle;rounded=0;orthogonalLoop=1;jettySize=auto;html=1;exitX=1;exitY=0.5;exitDx=0;exitDy=0;entryX=0.5;entryY=0;entryDx=0;entryDy=0;" parent="WIyWlLk6GJQsqaUBKTNV-1" source="0z6L-YeTGv1VFIF59bVe-14" target="0z6L-YeTGv1VFIF59bVe-0" edge="1">
          <mxGeometry relative="1" as="geometry" />
        </mxCell>
        <mxCell id="0z6L-YeTGv1VFIF59bVe-16" style="edgeStyle=orthogonalEdgeStyle;rounded=0;orthogonalLoop=1;jettySize=auto;html=1;exitX=1;exitY=0.5;exitDx=0;exitDy=0;" parent="WIyWlLk6GJQsqaUBKTNV-1" source="0z6L-YeTGv1VFIF59bVe-14" target="0z6L-YeTGv1VFIF59bVe-8" edge="1">
          <mxGeometry relative="1" as="geometry" />
        </mxCell>
        <mxCell id="bKSyxjsHjiWKcgMObePK-16" style="edgeStyle=orthogonalEdgeStyle;rounded=0;orthogonalLoop=1;jettySize=auto;html=1;exitX=0;exitY=0.5;exitDx=0;exitDy=0;entryX=1;entryY=0.5;entryDx=0;entryDy=0;" edge="1" parent="WIyWlLk6GJQsqaUBKTNV-1" source="0z6L-YeTGv1VFIF59bVe-14" target="0z6L-YeTGv1VFIF59bVe-28">
          <mxGeometry relative="1" as="geometry" />
        </mxCell>
        <mxCell id="0z6L-YeTGv1VFIF59bVe-14" value="home page" style="rounded=1;whiteSpace=wrap;html=1;" parent="WIyWlLk6GJQsqaUBKTNV-1" vertex="1">
          <mxGeometry x="2640" y="1000" width="120" height="60" as="geometry" />
        </mxCell>
        <mxCell id="bKSyxjsHjiWKcgMObePK-0" style="edgeStyle=orthogonalEdgeStyle;rounded=0;orthogonalLoop=1;jettySize=auto;html=1;exitX=0.5;exitY=1;exitDx=0;exitDy=0;entryX=0.5;entryY=0;entryDx=0;entryDy=0;" edge="1" parent="WIyWlLk6GJQsqaUBKTNV-1" source="0z6L-YeTGv1VFIF59bVe-24" target="0z6L-YeTGv1VFIF59bVe-26">
          <mxGeometry relative="1" as="geometry" />
        </mxCell>
        <mxCell id="bKSyxjsHjiWKcgMObePK-1" style="edgeStyle=orthogonalEdgeStyle;rounded=0;orthogonalLoop=1;jettySize=auto;html=1;exitX=0.5;exitY=1;exitDx=0;exitDy=0;" edge="1" parent="WIyWlLk6GJQsqaUBKTNV-1" source="0z6L-YeTGv1VFIF59bVe-24" target="0z6L-YeTGv1VFIF59bVe-25">
          <mxGeometry relative="1" as="geometry" />
        </mxCell>
        <mxCell id="0z6L-YeTGv1VFIF59bVe-24" value="Main Page" style="rounded=1;whiteSpace=wrap;html=1;" parent="WIyWlLk6GJQsqaUBKTNV-1" vertex="1">
          <mxGeometry x="2030" y="1400" width="120" height="60" as="geometry" />
        </mxCell>
        <mxCell id="0z6L-YeTGv1VFIF59bVe-25" value="Search" style="rounded=1;whiteSpace=wrap;html=1;" parent="WIyWlLk6GJQsqaUBKTNV-1" vertex="1">
          <mxGeometry x="1950" y="1580" width="120" height="60" as="geometry" />
        </mxCell>
        <mxCell id="0z6L-YeTGv1VFIF59bVe-26" value="Hot Posts" style="rounded=1;whiteSpace=wrap;html=1;" parent="WIyWlLk6GJQsqaUBKTNV-1" vertex="1">
          <mxGeometry x="2110" y="1580" width="120" height="60" as="geometry" />
        </mxCell>
        <mxCell id="0z6L-YeTGv1VFIF59bVe-30" style="edgeStyle=orthogonalEdgeStyle;rounded=0;orthogonalLoop=1;jettySize=auto;html=1;exitX=0.5;exitY=1;exitDx=0;exitDy=0;entryX=0.5;entryY=0;entryDx=0;entryDy=0;" parent="WIyWlLk6GJQsqaUBKTNV-1" source="0z6L-YeTGv1VFIF59bVe-28" target="0z6L-YeTGv1VFIF59bVe-24" edge="1">
          <mxGeometry relative="1" as="geometry" />
        </mxCell>
        <mxCell id="0z6L-YeTGv1VFIF59bVe-28" value="not &lt;br&gt;logged in" style="rhombus;whiteSpace=wrap;html=1;" parent="WIyWlLk6GJQsqaUBKTNV-1" vertex="1">
          <mxGeometry x="2470" y="990" width="80" height="80" as="geometry" />
        </mxCell>
        <mxCell id="0z6L-YeTGv1VFIF59bVe-36" value="New post" style="rounded=1;whiteSpace=wrap;html=1;" parent="WIyWlLk6GJQsqaUBKTNV-1" vertex="1">
          <mxGeometry x="2490" y="1580" width="120" height="60" as="geometry" />
        </mxCell>
        <mxCell id="0z6L-YeTGv1VFIF59bVe-37" value="What Should I Wear" style="rounded=1;whiteSpace=wrap;html=1;" parent="WIyWlLk6GJQsqaUBKTNV-1" vertex="1">
          <mxGeometry x="2620" y="1580" width="120" height="60" as="geometry" />
        </mxCell>
        <mxCell id="rKLbovxo4yAuVbZpLVQN-1" style="edgeStyle=orthogonalEdgeStyle;rounded=0;orthogonalLoop=1;jettySize=auto;html=1;exitX=0.5;exitY=1;exitDx=0;exitDy=0;entryX=0.5;entryY=0;entryDx=0;entryDy=0;" parent="WIyWlLk6GJQsqaUBKTNV-1" source="0z6L-YeTGv1VFIF59bVe-99" target="rKLbovxo4yAuVbZpLVQN-0" edge="1">
          <mxGeometry relative="1" as="geometry" />
        </mxCell>
        <mxCell id="rKLbovxo4yAuVbZpLVQN-3" style="edgeStyle=orthogonalEdgeStyle;rounded=0;orthogonalLoop=1;jettySize=auto;html=1;exitX=0.5;exitY=1;exitDx=0;exitDy=0;entryX=0.5;entryY=0;entryDx=0;entryDy=0;" parent="WIyWlLk6GJQsqaUBKTNV-1" source="0z6L-YeTGv1VFIF59bVe-99" target="rKLbovxo4yAuVbZpLVQN-2" edge="1">
          <mxGeometry relative="1" as="geometry" />
        </mxCell>
        <mxCell id="0z6L-YeTGv1VFIF59bVe-99" value="My profile" style="rounded=1;whiteSpace=wrap;html=1;" parent="WIyWlLk6GJQsqaUBKTNV-1" vertex="1">
          <mxGeometry x="2750" y="1580" width="120" height="60" as="geometry" />
        </mxCell>
        <mxCell id="rKLbovxo4yAuVbZpLVQN-0" value="Favorates" style="rounded=1;whiteSpace=wrap;html=1;" parent="WIyWlLk6GJQsqaUBKTNV-1" vertex="1">
          <mxGeometry x="2690" y="1750" width="120" height="60" as="geometry" />
        </mxCell>
        <mxCell id="rKLbovxo4yAuVbZpLVQN-2" value="settings" style="rounded=1;whiteSpace=wrap;html=1;" parent="WIyWlLk6GJQsqaUBKTNV-1" vertex="1">
          <mxGeometry x="2820" y="1750" width="120" height="60" as="geometry" />
        </mxCell>
        <mxCell id="rKLbovxo4yAuVbZpLVQN-7" value="Overview page" style="rounded=1;whiteSpace=wrap;html=1;" parent="WIyWlLk6GJQsqaUBKTNV-1" vertex="1">
          <mxGeometry x="2970" y="1400" width="120" height="60" as="geometry" />
        </mxCell>
        <mxCell id="bKSyxjsHjiWKcgMObePK-10" style="edgeStyle=orthogonalEdgeStyle;rounded=0;orthogonalLoop=1;jettySize=auto;html=1;exitX=0.5;exitY=1;exitDx=0;exitDy=0;" edge="1" parent="WIyWlLk6GJQsqaUBKTNV-1" source="bKSyxjsHjiWKcgMObePK-6" target="bKSyxjsHjiWKcgMObePK-7">
          <mxGeometry relative="1" as="geometry" />
        </mxCell>
        <mxCell id="bKSyxjsHjiWKcgMObePK-12" style="edgeStyle=orthogonalEdgeStyle;rounded=0;orthogonalLoop=1;jettySize=auto;html=1;exitX=0.5;exitY=1;exitDx=0;exitDy=0;" edge="1" parent="WIyWlLk6GJQsqaUBKTNV-1" source="bKSyxjsHjiWKcgMObePK-6" target="0z6L-YeTGv1VFIF59bVe-36">
          <mxGeometry relative="1" as="geometry" />
        </mxCell>
        <mxCell id="bKSyxjsHjiWKcgMObePK-13" style="edgeStyle=orthogonalEdgeStyle;rounded=0;orthogonalLoop=1;jettySize=auto;html=1;exitX=0.5;exitY=1;exitDx=0;exitDy=0;entryX=0.5;entryY=0;entryDx=0;entryDy=0;" edge="1" parent="WIyWlLk6GJQsqaUBKTNV-1" source="bKSyxjsHjiWKcgMObePK-6" target="0z6L-YeTGv1VFIF59bVe-37">
          <mxGeometry relative="1" as="geometry" />
        </mxCell>
        <mxCell id="bKSyxjsHjiWKcgMObePK-14" style="edgeStyle=orthogonalEdgeStyle;rounded=0;orthogonalLoop=1;jettySize=auto;html=1;exitX=0.5;exitY=1;exitDx=0;exitDy=0;entryX=0.5;entryY=0;entryDx=0;entryDy=0;" edge="1" parent="WIyWlLk6GJQsqaUBKTNV-1" source="bKSyxjsHjiWKcgMObePK-6" target="0z6L-YeTGv1VFIF59bVe-99">
          <mxGeometry relative="1" as="geometry" />
        </mxCell>
        <mxCell id="bKSyxjsHjiWKcgMObePK-15" style="edgeStyle=orthogonalEdgeStyle;rounded=0;orthogonalLoop=1;jettySize=auto;html=1;exitX=0.5;exitY=1;exitDx=0;exitDy=0;" edge="1" parent="WIyWlLk6GJQsqaUBKTNV-1" source="bKSyxjsHjiWKcgMObePK-6" target="bKSyxjsHjiWKcgMObePK-8">
          <mxGeometry relative="1" as="geometry" />
        </mxCell>
        <mxCell id="bKSyxjsHjiWKcgMObePK-6" value="Main Page" style="rounded=1;whiteSpace=wrap;html=1;" vertex="1" parent="WIyWlLk6GJQsqaUBKTNV-1">
          <mxGeometry x="2620" y="1400" width="120" height="60" as="geometry" />
        </mxCell>
        <mxCell id="bKSyxjsHjiWKcgMObePK-7" value="Search" style="rounded=1;whiteSpace=wrap;html=1;" vertex="1" parent="WIyWlLk6GJQsqaUBKTNV-1">
          <mxGeometry x="2360" y="1580" width="120" height="60" as="geometry" />
        </mxCell>
        <mxCell id="bKSyxjsHjiWKcgMObePK-8" value="Hot Posts" style="rounded=1;whiteSpace=wrap;html=1;" vertex="1" parent="WIyWlLk6GJQsqaUBKTNV-1">
          <mxGeometry x="2880" y="1580" width="120" height="60" as="geometry" />
        </mxCell>
      </root>
    </mxGraphModel>
  </diagram>
</mxfile>
